<?xml version="1.0" encoding="UTF-8"?>
<!-- Generated by Pixelmator Pro 2.4.5 -->
<svg width="100" height="35" viewBox="0 0 100 35" xmlns="http://www.w3.org/2000/svg" xmlns:xlink="http://www.w3.org/1999/xlink">
    <g id="fe530eff">
        <path id="Path" fill="#fe530e" stroke="none" d="M 2.015826 4.778353 C 3.52467 2.49054 6.247847 1.325294 8.902736 1.09267 C 11.410364 0.87072 14.041775 1.058521 16.34453 2.151207 C 18.414656 3.171333 19.921366 5.20945 20.339663 7.473787 C 20.540272 8.491777 20.54454 9.535379 20.546671 10.568308 C 18.46801 10.572577 16.389341 10.568308 14.308542 10.570442 C 14.259461 9.245134 14.144212 7.787508 13.247871 6.731102 C 12.451834 5.81555 11.117986 5.693905 9.986883 5.839025 C 8.806698 5.962807 7.632915 6.724697 7.304256 7.909155 C 6.956388 9.275011 7.00334 10.807333 7.728951 12.047277 C 8.243281 12.841183 9.114018 13.304293 9.946335 13.701244 C 11.476522 14.388443 13.021651 15.037226 14.560377 15.705214 C 16.630503 16.601559 18.779594 17.625952 20.171062 19.476261 C 21.361919 21.019257 21.598812 23.040298 21.571068 24.929024 C 21.547592 27.308603 20.943624 29.848248 19.185083 31.559834 C 17.283552 33.31411 14.688424 34.101612 12.153051 34.295818 C 9.542982 34.492161 6.804862 34.408932 4.384734 33.307705 C 2.421314 32.434837 1.085335 30.511969 0.547528 28.475985 C 0.118564 26.962872 0.112158 25.377195 0.107891 23.819263 C 2.276192 23.817129 4.444489 23.817129 6.614922 23.819263 C 6.644801 25.539391 6.497547 27.654335 7.978646 28.866535 C 9.745726 30.161968 12.586285 30.05526 14.033241 28.313789 C 14.8805 27.216835 14.910375 25.707989 14.647872 24.401888 C 14.357629 22.954933 13.121954 21.960415 11.85 21.367123 C 9.594203 20.300045 7.107913 19.760105 4.954552 18.466808 C 2.839609 17.297293 1.162163 15.252773 0.788688 12.824108 C 0.349048 10.122271 0.547528 7.157932 2.015826 4.778353 Z"/>
        <path id="path1" fill="#fe530e" stroke="none" d="M 60.764786 2.910969 C 63.238266 0.985962 66.573952 0.834438 69.572433 1.101204 C 72.216652 1.31889 74.833115 2.727432 76.143494 5.087805 C 77.451729 7.328665 77.507217 9.996355 77.586174 12.514656 C 75.417885 12.512522 73.247437 12.514656 71.079147 12.514656 C 71.030067 10.832943 70.998039 9.080803 70.293777 7.520739 C 69.28006 5.26067 65.485535 5.175304 64.407784 7.420433 C 63.692844 8.803366 63.507175 10.380505 63.347115 11.908556 C 63.099548 14.821676 63.09528 17.751865 63.155029 20.675657 C 63.236134 22.786333 63.31723 24.931158 63.906254 26.973541 C 64.219978 27.985128 64.749245 29.114098 65.833405 29.466232 C 67.002914 29.880257 68.437057 29.846109 69.459328 29.077818 C 70.370613 28.315924 70.741943 27.127201 70.983116 26.004637 C 71.290428 24.544876 71.335243 23.044567 71.350189 21.55706 C 73.518478 21.552794 75.688911 21.55706 77.859344 21.554928 C 77.746239 24.74762 77.622459 28.194279 75.740135 30.917456 C 74.271835 33.081486 71.657501 34.16777 69.113586 34.323566 C 66.232483 34.504967 63.061134 34.325699 60.67942 32.503132 C 58.312641 30.699772 57.354404 27.667141 56.991608 24.826584 C 56.496475 20.103704 56.494347 15.323202 57.006535 10.602453 C 57.373611 7.740557 58.383068 4.718596 60.764786 2.910969 Z"/>
        <path id="path2" fill="#fe530e" stroke="none" d="M 24.637846 1.619804 C 26.806145 1.617672 28.976578 1.619804 31.144876 1.619804 C 31.147011 10.600323 31.147011 19.580837 31.144876 28.563484 C 34.988487 28.563484 38.832092 28.563484 42.673565 28.563484 C 42.675705 30.341236 42.675705 32.121117 42.673565 33.898869 C 36.661663 33.898869 30.64975 33.898869 24.635712 33.898869 C 24.637846 23.13847 24.635712 12.380205 24.637846 1.619804 Z"/>
        <path id="path3" fill="#fe530e" stroke="none" d="M 46.081806 1.617672 C 48.250111 1.619804 50.420547 1.617672 52.588844 1.619804 C 52.590973 12.378071 52.590973 23.13847 52.590973 33.898869 C 50.420547 33.898869 48.250111 33.898869 46.079678 33.898869 C 46.081806 23.13847 46.079678 12.378071 46.081806 1.617672 Z"/>
        <path id="path4" fill="#fe530e" stroke="none" d="M 81.61972 1.619804 C 87.631638 1.617672 93.643547 1.619804 99.655449 1.619804 C 99.655449 3.397554 99.657585 5.175304 99.655449 6.953053 C 95.811836 6.953053 91.97036 6.953053 88.128883 6.953053 C 88.12677 9.484159 88.12677 12.017399 88.128883 14.548504 C 91.744141 14.54637 95.359398 14.552771 98.976791 14.54637 C 98.9832 16.326254 98.976791 18.104002 98.97892 19.883884 C 95.361534 19.881752 91.746284 19.883884 88.128883 19.881752 C 88.124626 22.775661 88.128883 25.669575 88.12677 28.563484 C 92.121895 28.565619 96.114891 28.561352 100.107895 28.563484 C 100.107895 30.341236 100.107895 32.121117 100.107895 33.898869 C 93.94445 33.898869 87.781021 33.898869 81.617599 33.898869 C 81.61972 23.13847 81.617599 12.380205 81.61972 1.619804 Z"/>
    </g>
</svg>
